<?xml version="1.0" encoding="UTF-8" standalone="no"?>
<!-- Created with Inkscape (http://www.inkscape.org/) -->

<svg
   width="1000.0001"
   height="1000.0001"
   viewBox="0 0 264.58335 264.58335"
   version="1.1"
   id="svg1"
   xml:space="preserve"
   inkscape:version="1.4 (86a8ad7, 2024-10-11)"
   sodipodi:docname="drawing.svg"
   inkscape:export-filename="Razan Muhammad Ihsan_ikon20.jpg"
   inkscape:export-xdpi="96"
   inkscape:export-ydpi="96"
   xmlns:inkscape="http://www.inkscape.org/namespaces/inkscape"
   xmlns:sodipodi="http://sodipodi.sourceforge.net/DTD/sodipodi-0.dtd"
   xmlns="http://www.w3.org/2000/svg"
   xmlns:svg="http://www.w3.org/2000/svg"
   xmlns:rdf="http://www.w3.org/1999/02/22-rdf-syntax-ns#"
   xmlns:cc="http://creativecommons.org/ns#"
   xmlns:dc="http://purl.org/dc/elements/1.1/"><defs
     id="defs1" /><sodipodi:namedview
     id="base"
     pagecolor="#ffffff"
     bordercolor="#000000"
     borderopacity="0.3"
     inkscape:pageopacity="0.0"
     inkscape:pageshadow="2"
     inkscape:zoom="0.36698843"
     inkscape:cx="841.9884"
     inkscape:cy="557.23828"
     inkscape:document-units="px"
     inkscape:showpageshadow="2"
     inkscape:pagecheckerboard="0"
     inkscape:deskcolor="#d1d1d1"
     inkscape:window-width="1366"
     inkscape:window-height="745"
     inkscape:window-x="-8"
     inkscape:window-y="-8"
     inkscape:window-maximized="1"
     inkscape:current-layer="layer4"
     inkscape:export-bgcolor="#ffffffff"
     showguides="true"><inkscape:page
       x="0"
       y="0"
       width="264.58334"
       height="264.58334"
       id="page2"
       margin="0"
       bleed="0" /></sodipodi:namedview><metadata
     id="metadata1"><rdf:RDF><cc:Work
         rdf:about=""><dc:format>image/svg+xml</dc:format><dc:type
           rdf:resource="http://purl.org/dc/dcmitype/StillImage" /></cc:Work></rdf:RDF></metadata><g
     inkscape:groupmode="layer"
     id="layer3"
     inkscape:label="Vector"><g
       inkscape:groupmode="layer"
       id="layer5"
       inkscape:label="Vector 2"><rect
         style="display:inline;fill:#f4f6ff;fill-opacity:1;stroke:none;stroke-width:0.265;stroke-linecap:round"
         id="rect22"
         width="264.58334"
         height="264.58334"
         x="-3.8052894e-14"
         y="-3.1724623e-14"
         inkscape:export-filename="MeadowGreen.png"
         inkscape:export-xdpi="96"
         inkscape:export-ydpi="96" /><g
         id="g44"
         transform="matrix(0.65875906,0,0,0.65875906,51.631815,30.496393)"
         style="stroke-width:4.01639;stroke-dasharray:none"
         inkscape:export-filename="MeadowGreen.svg"
         inkscape:export-xdpi="96"
         inkscape:export-ydpi="96"><path
           id="path22"
           style="fill:#10375c;fill-opacity:1;fill-rule:evenodd;stroke:#eb8317;stroke-width:3.91866;stroke-linecap:square;stroke-linejoin:miter;stroke-miterlimit:20;stroke-dasharray:none;stroke-dashoffset:14;stroke-opacity:1;paint-order:stroke fill markers"
           inkscape:transform-center-y="-11.641607"
           d="M 113.56416,175.67445 H 32.908774 l 40.327699,-69.84963 z"
           inkscape:transform-center-x="2.0936891e-06" /><path
           id="rect23"
           style="fill:#f4f6ff;fill-opacity:1;fill-rule:evenodd;stroke:#eb8317;stroke-width:4.01639;stroke-linecap:square;stroke-linejoin:miter;stroke-miterlimit:20;stroke-dasharray:none;stroke-dashoffset:14;stroke-opacity:1;paint-order:stroke fill markers"
           d="m 82.691248,104.03396 41.333392,71.59149 h 39.11235 l -41.3334,-71.59149 z" /><path
           id="path23"
           style="fill:#f4f6ff;fill-opacity:1;fill-rule:evenodd;stroke:#eb8317;stroke-width:4.01639;stroke-linecap:square;stroke-linejoin:miter;stroke-miterlimit:20;stroke-dasharray:none;stroke-dashoffset:14;stroke-opacity:1;paint-order:stroke fill markers"
           d="m 132.0193,104.03396 41.33339,71.59149 h 39.11235 l -41.3334,-71.59149 z" /><path
           id="path24"
           style="fill:#ffffff;fill-opacity:1;fill-rule:evenodd;stroke:none;stroke-width:3.5063;stroke-linecap:square;stroke-linejoin:miter;stroke-miterlimit:20;stroke-dasharray:none;stroke-dashoffset:14;stroke-opacity:1;paint-order:stroke fill markers"
           d="m 63.760546,133.35231 -1.792011,1.02239 1.841167,3.22692 -2.889323,-1.08298 -0.724427,1.93091 5.212192,1.95399 0.854713,1.49793 -2.88932,-1.08297 -0.724428,1.9309 5.212594,1.95401 2.634701,3.77998 -1.951532,1.11336 -0.02927,5.72457 4.943009,2.88787 4.972296,-2.83717 0.01148,-2.24637 4.587008,0.43902 4.261743,3.58085 1.326414,-1.57939 -2.362287,-1.98497 1.724706,0.009 4.261746,3.58086 1.326413,-1.57941 -2.362285,-1.98496 3.714842,0.019 0.01055,-2.06303 -3.71364,-0.0189 2.381266,-1.96072 -1.310198,-1.59126 -4.296127,3.53548 -1.725512,-0.009 2.381257,-1.96067 -1.310196,-1.59131 -4.296128,3.53549 -4.593277,0.39223 0.01149,-2.24639 -1.939077,-1.13278 2.674855,-3.75411 5.229889,-1.8994 -0.703431,-1.9374 -2.899441,1.05218 0.870401,-1.48991 5.229486,-1.8994 -0.70303,-1.9378 -2.899837,1.05255 1.873266,-3.20669 -1.781054,-1.04067 -1.874078,3.20751 -0.506853,-3.04366 -2.03462,0.33842 0.914449,5.49067 -0.869992,1.48911 -0.506857,-3.04325 -2.034615,0.338 0.914046,5.49068 -1.956237,4.1718 -1.940275,-1.1335 -1.950812,1.11313 -1.913845,-4.19353 0.969755,-5.47906 -2.029438,-0.35959 -0.538764,3.03711 -0.855112,-1.49872 0.970152,-5.47863 -2.029838,-0.35961 -0.538357,3.03711 z m 9.744655,15.74322 2.926177,1.70946 -0.01734,3.38888 -2.943513,1.67964 -2.926375,-1.70968 0.01733,-3.38886 z m -18.771389,-1.29655 -1.326405,1.57779 2.361073,1.98496 -3.713633,-0.019 -0.01055,2.06302 3.71484,0.019 -2.382469,1.9607 1.310192,1.59288 4.29815,-3.53708 1.724708,0.009 -2.382471,1.96069 1.310185,1.59291 4.298152,-3.53709 4.59126,-0.39191 0.0064,-1.23179 -4.589022,-0.43936 -4.259738,-3.57923 -1.326407,1.57781 2.361081,1.98494 -1.725511,-0.009 z m 21.74603,8.68667 -1.069713,0.61044 1.913295,4.19191 -0.970165,5.48145 2.031052,0.3588 0.537962,-3.03832 0.854707,1.49834 -0.97056,5.48103 2.031045,0.35923 0.53796,-3.03833 1.84117,3.22652 1.79161,-1.02241 -1.840368,-3.22568 2.888921,1.08216 0.722814,-1.9305 -5.20978,-1.95278 -0.855111,-1.49876 2.888518,1.08178 0.723216,-1.93011 -5.210185,-1.95277 z m -6.024455,-0.0306 -2.673395,3.7534 -5.23231,1.9002 0.704635,1.9386 2.900248,-1.05337 -0.869991,1.48911 -5.231911,1.9006 0.704637,1.93821 2.90025,-1.05337 -1.874075,3.20747 1.781458,1.04068 1.873261,-3.20628 0.507263,3.04244 2.033415,-0.33923 -0.914055,-5.48826 0.870397,-1.48991 0.507661,3.04288 2.033012,-0.33924 -0.913653,-5.48828 1.956809,-4.1743 z"
           sodipodi:nodetypes="ccccccccccccccccccccccccccccccccccccccccccccccccccccccccccccccccccccccccccccccccccccccccccccccccccccccccccccccccccccccccccccccccccccccccc" /><path
           style="fill:#f3c623;fill-opacity:1;fill-rule:evenodd;stroke:#eb8317;stroke-width:4.01639;stroke-linecap:square;stroke-linejoin:miter;stroke-miterlimit:20;stroke-dasharray:none;stroke-dashoffset:14;stroke-opacity:1;paint-order:stroke fill markers"
           d="m 102.24742,104.03396 41.33339,71.59149 H 124.02464 L 82.691247,104.03396 Z"
           id="path43" /><path
           style="fill:#f3c623;fill-opacity:1;fill-rule:evenodd;stroke:#eb8317;stroke-width:4.01639;stroke-linecap:square;stroke-linejoin:miter;stroke-miterlimit:20;stroke-dasharray:none;stroke-dashoffset:14;stroke-opacity:1;paint-order:stroke fill markers"
           d="m 132.0193,104.03396 v 0 h 19.55617 l 41.33339,71.59149 h -19.55617 z"
           id="path44" /><path
           style="font-size:22.5778px;line-height:0.7;font-family:Quicksilver;-inkscape-font-specification:Quicksilver;letter-spacing:0px;word-spacing:-4.23333px;text-orientation:upright;fill:#eb8317;fill-rule:evenodd;stroke-width:4.01639;stroke-linecap:square;stroke-linejoin:bevel;stroke-miterlimit:20;stroke-dasharray:none;stroke-dashoffset:14;paint-order:stroke fill markers"
           d="m 54.90647,199.48773 -3.85851,-7.1658 v 7.1658 h -4.409727 v -15.43404 h 4.409727 l 3.85851,7.71702 3.858511,-7.71702 h 4.409727 v 15.43404 h -4.409727 v -7.1658 z m 21.310004,-15.43404 v 4.40973 h -6.61459 v 1.10243 h 5.512159 v 4.40972 h -5.512159 v 1.10244 h 6.61459 v 4.40972 H 65.192157 v -15.43404 z m 8.422579,4.63021 -1.499308,4.18924 h 2.998615 z m -3.075785,8.59897 -0.782726,2.20486 h -4.409727 l 5.512158,-15.43404 h 5.512159 l 5.512158,15.43404 h -4.409727 l -0.782726,-2.20486 z m 17.572761,-13.22918 q 3.197051,0 5.457041,2.25998 2.25998,2.25999 2.25998,5.45704 0,3.19705 -2.25998,5.45704 -2.25999,2.25998 -5.457041,2.25998 h -6.063375 v -15.43404 z m -1.653648,11.02432 h 1.653648 q 1.367011,0 2.337151,-0.97014 0.97014,-0.97014 0.97014,-2.33716 0,-1.36702 -0.97014,-2.33715 -0.97014,-0.97014 -2.337151,-0.97014 h -1.653648 z m 17.760169,4.40972 q -3.19705,0 -5.45703,-2.25998 -2.25999,-2.25999 -2.25999,-5.45704 0,-3.19705 2.25999,-5.45704 2.25998,-2.25998 5.45703,-2.25998 3.19706,0 5.45704,2.25998 2.25998,2.25999 2.25998,5.45704 0,3.19705 -2.25998,5.45704 -2.25998,2.25998 -5.45704,2.25998 z m 0,-4.40972 q 1.36702,0 2.33716,-0.97014 0.97014,-0.97014 0.97014,-2.33716 0,-1.36702 -0.97014,-2.33715 -0.97014,-0.97014 -2.33716,-0.97014 -1.36701,0 -2.33715,0.97014 -0.97014,0.97013 -0.97014,2.33715 0,1.36702 0.97014,2.33716 0.97014,0.97014 2.33715,0.97014 z m 17.28613,0 -1.65364,4.40972 h -3.85851 l -5.51216,-15.43404 h 4.40972 l 3.3073,8.81945 3.30729,-8.81945 2.25999,6.0303 1.04731,2.78915 3.30729,-8.81945 h 4.40973 l -5.51216,15.43404 h -3.85851 z m 26.08355,0 v -4.40973 h 4.40972 v 8.81945 h -6.06337 q -3.19705,0 -5.45704,-2.25998 -2.25998,-2.25999 -2.25998,-5.45704 0,-3.19705 2.25998,-5.45704 2.25999,-2.25998 5.45704,-2.25998 h 4.96094 v 4.40973 h -4.96094 q -1.36702,0 -2.33716,0.97014 -0.97014,0.97013 -0.97014,2.33715 0,1.36702 0.97014,2.33716 0.97014,0.97014 2.33716,0.97014 z m 9.977,-6.61459 v 2.20486 h 3.3073 q 1.10243,0 1.10243,-1.10243 0,-1.10243 -1.10243,-1.10243 z m 0,6.61459 v 4.40972 h -4.40972 v -15.43404 h 7.71702 q 5.51216,0 5.51216,5.51216 0,4.40972 -3.52778,5.29167 l 4.63021,4.63021 h -5.51216 z m 21.15567,-11.02432 v 4.40973 h -6.61459 v 1.10243 h 5.51216 v 4.40972 h -5.51216 v 1.10244 h 6.61459 v 4.40972 h -11.02432 v -15.43404 z m 12.44644,0 v 4.40973 h -6.61459 v 1.10243 h 5.51216 v 4.40972 h -5.51216 v 1.10244 h 6.61459 v 4.40972 h -11.02431 v -15.43404 z m 5.83187,7.71702 v 7.71702 h -4.40973 v -15.43404 h 4.40973 l 5.51216,7.71702 v -7.71702 h 4.40972 v 15.43404 h -4.40972 z"
           id="text44"
           aria-label="Meadow Green"
           transform="translate(-9.8495538,7.53811)" /></g></g></g></svg>
