<?xml version="1.0" encoding="UTF-8" standalone="no"?>
<!-- Created with Inkscape (http://www.inkscape.org/) -->

<svg
   width="1000.0001"
   height="1000.0001"
   viewBox="0 0 264.58335 264.58335"
   version="1.1"
   id="svg1"
   xml:space="preserve"
   inkscape:version="1.4 (86a8ad7, 2024-10-11)"
   sodipodi:docname="drawing.svg"
   inkscape:export-filename="CrestoneApparel.png"
   inkscape:export-xdpi="96"
   inkscape:export-ydpi="96"
   xmlns:inkscape="http://www.inkscape.org/namespaces/inkscape"
   xmlns:sodipodi="http://sodipodi.sourceforge.net/DTD/sodipodi-0.dtd"
   xmlns="http://www.w3.org/2000/svg"
   xmlns:svg="http://www.w3.org/2000/svg"
   xmlns:rdf="http://www.w3.org/1999/02/22-rdf-syntax-ns#"
   xmlns:cc="http://creativecommons.org/ns#"
   xmlns:dc="http://purl.org/dc/elements/1.1/"><defs
     id="defs1"><inkscape:path-effect
       effect="offset"
       id="path-effect22"
       is_visible="true"
       lpeversion="1.3"
       linejoin_type="miter"
       unit="mm"
       offset="3.5"
       miter_limit="4"
       attempt_force_join="false"
       update_on_knot_move="true" /><inkscape:path-effect
       effect="offset"
       id="path-effect21"
       is_visible="true"
       lpeversion="1.3"
       linejoin_type="miter"
       unit="mm"
       offset="3.5"
       miter_limit="4"
       attempt_force_join="false"
       update_on_knot_move="true" /></defs><sodipodi:namedview
     id="base"
     pagecolor="#ffffff"
     bordercolor="#000000"
     borderopacity="0.3"
     inkscape:pageopacity="0.0"
     inkscape:pageshadow="2"
     inkscape:zoom="0.51900001"
     inkscape:cx="477.84199"
     inkscape:cy="523.12138"
     inkscape:document-units="px"
     inkscape:showpageshadow="2"
     inkscape:pagecheckerboard="0"
     inkscape:deskcolor="#d1d1d1"
     inkscape:window-width="1366"
     inkscape:window-height="745"
     inkscape:window-x="-8"
     inkscape:window-y="-8"
     inkscape:window-maximized="1"
     inkscape:current-layer="layer5"
     inkscape:export-bgcolor="#ffffffff"
     showguides="true"><inkscape:page
       x="0"
       y="0"
       width="264.58334"
       height="264.58334"
       id="page2"
       margin="0"
       bleed="0" /></sodipodi:namedview><metadata
     id="metadata1"><rdf:RDF><cc:Work
         rdf:about=""><dc:format>image/svg+xml</dc:format><dc:type
           rdf:resource="http://purl.org/dc/dcmitype/StillImage" /></cc:Work></rdf:RDF></metadata><g
     inkscape:groupmode="layer"
     id="layer3"
     inkscape:label="Vector"><g
       inkscape:groupmode="layer"
       id="layer4"
       inkscape:label="Vector 1"
       style="display:inline"><rect
         style="display:inline;fill:#deac80;fill-opacity:1;stroke:none;stroke-width:0.265;stroke-linecap:round"
         id="rect2"
         width="264.58334"
         height="264.58334"
         x="-3.8052894e-14"
         y="-3.1724623e-14"
         inkscape:export-filename="BPC.svg"
         inkscape:export-xdpi="96"
         inkscape:export-ydpi="96" /><g
         id="g14"
         transform="matrix(0.63948271,0,0,0.63948271,53.724522,38.563431)"
         inkscape:export-filename="BPC.svg"
         inkscape:export-xdpi="96"
         inkscape:export-ydpi="96"><g
           id="g11"
           transform="translate(76.469168,-255.91682)"
           style="fill:#31511e;fill-opacity:1"><path
             id="path17"
             style="fill:#ffffff;fill-opacity:1;fill-rule:evenodd;stroke-width:5.29167;stroke-linecap:square;stroke-miterlimit:20;stroke-dashoffset:14;paint-order:stroke fill markers"
             d="M 46.390625,293.03125 -2.3398438,358.07812 H 13.443359 L -4.3046875,380.76367 H 21.839844 l -40.451172,39.56055 H 1.4882812 l -33.8261722,27.03515 h 61.132813 l 0.365234,23.88086 4.244141,0.92188 c 7.859631,1.70894 16.476014,1.6681 25.755859,0.043 l 4.460938,-0.78125 0.367187,-24.06446 H 125.12109 L 91.294922,420.32422 H 111.39453 L 70.943359,380.76367 H 97.085937 L 79.339844,358.07812 h 15.78125 z"
             inkscape:path-effect="#path-effect21"
             inkscape:original-d="M 46.391295,302.16028 8.6003205,352.60578 H 24.673241 L 6.9265209,375.29018 H 33.170397 l 0.03049,2.01642 -38.3888709,37.54499 H 17.102644 l -33.825842,27.03608 h 50.909037 l 0.380338,24.92768 c 7.033791,1.52938 14.91713,1.52938 23.650236,0 l 0.380338,-24.92768 H 109.50579 L 75.679946,414.85159 h 22.290629 l -38.388871,-37.54499 0.03049,-2.01642 H 85.85607 l -17.74672,-22.6844 h 16.07292 z" /><path
             id="rect3"
             style="fill:#31511e;fill-opacity:1;fill-rule:evenodd;stroke-width:5.29167;stroke-linecap:square;stroke-miterlimit:20;stroke-dashoffset:14;paint-order:stroke fill markers"
             d="m 33.036739,366.5145 h 26.709109 l -1.529383,100.30066 c -8.733106,1.52938 -16.616552,1.52938 -23.650343,0 z"
             sodipodi:nodetypes="ccccc" /><path
             id="path3"
             style="fill:#31511e;fill-opacity:1;fill-rule:evenodd;stroke-width:5.18757;stroke-linecap:square;stroke-miterlimit:20;stroke-dashoffset:14;paint-order:stroke fill markers"
             inkscape:transform-center-y="-11.351515"
             d="M 84.182183,352.60565 H 8.6004088 L 46.391297,302.16003 Z"
             sodipodi:nodetypes="cccc" /><path
             id="path9"
             style="fill:#31511e;fill-opacity:1;fill-rule:evenodd;stroke-width:5.01102;stroke-linecap:square;stroke-miterlimit:20;stroke-dashoffset:14;paint-order:stroke fill markers"
             inkscape:transform-center-y="-11.351515"
             d="M 85.855912,375.29023 H 6.9266804 L 46.391297,324.84461 Z"
             sodipodi:nodetypes="cccc" /><path
             id="path10"
             style="fill:#31511e;fill-opacity:1;fill-rule:evenodd;stroke-width:5.29167;stroke-linecap:square;stroke-miterlimit:20;stroke-dashoffset:14;paint-order:stroke fill markers"
             inkscape:transform-center-y="-11.351515"
             d="M 97.97039,414.85171 H -5.1877978 L 46.391297,364.40609 Z"
             sodipodi:nodetypes="cccc" /><path
             id="path11"
             style="fill:#31511e;fill-opacity:1;fill-rule:evenodd;stroke-width:5.29167;stroke-linecap:square;stroke-miterlimit:20;stroke-dashoffset:14;paint-order:stroke fill markers"
             inkscape:transform-center-y="-11.351515"
             d="M 109.50572,441.88764 H -16.72313 l 63.114427,-50.44562 z"
             sodipodi:nodetypes="cccc" /></g><g
           id="g13"
           transform="matrix(1.0464615,0,0,1,-0.20320418,1.8036529)"><path
             style="font-variation-settings:normal;opacity:1;vector-effect:none;fill:#ffffff;fill-opacity:1;stroke:none;stroke-width:0.23801;stroke-linecap:butt;stroke-linejoin:miter;stroke-miterlimit:4;stroke-dasharray:none;stroke-dashoffset:0;stroke-opacity:1;-inkscape-stroke:none;stop-color:#000000;stop-opacity:1"
             d="m 134.85156,92.527344 c -11.1609,0.04508 -18.51724,9.125896 -20.66992,19.119136 -15.04603,-7.22104 -33.859119,2.67175 -39.11914,25.93164 L 70.984375,155.61133 84.0625,142.54297 c 2.257101,-2.25555 4.847694,-4.33566 7.548828,-6.125 -8.501052,11.75228 -6.930569,27.3742 -1.654297,36.61719 l 6.328125,11.08398 3.466797,-12.2832 c 2.574777,-9.11926 5.204917,-15.31617 8.515627,-20.32227 0.61297,-0.92687 1.2635,-1.80897 1.93555,-2.67578 -1.59602,16.59188 -0.94534,39.92368 4.28515,61.53516 l 0.63867,2.64062 2.50586,1.04102 c 6.36792,2.64759 13.75679,0.60043 17.62891,-1.06055 l 4.52734,-1.94336 -1.5625,-4.67187 c -3.99147,-11.92778 -6.78345,-26.07926 -8.08203,-39.32422 -0.77697,-7.92482 -0.98972,-15.53636 -0.68555,-22.11914 1.49211,2.58333 2.78398,5.46512 3.78321,8.51953 2.35982,7.21343 3.16007,15.20662 2.42773,21.08203 l -1.09375,8.77344 8.2793,-3.10157 c 3.99823,-1.49758 6.88242,-4.1422 8.85156,-7.54101 4.54848,-7.85085 3.67587,-19.06055 -0.64062,-28.82617 0.17642,0.089 0.35833,0.1713 0.5332,0.26172 2.81021,1.45296 5.46835,3.07783 7.54492,4.63476 2.07657,1.55693 3.54168,3.1296 3.99219,3.86914 l 8.10742,13.31055 1.77539,-15.48438 c 0.50326,-4.3862 -0.31495,-8.39251 -2.11523,-11.92187 -0.8929,-1.75047 -2.03161,-3.34982 -3.33399,-4.82813 l 9.90625,5.29102 -6.93164,-14.63867 c -6.11572,-12.91524 -22.04697,-19.8147 -35.68359,-15.8711 1.18032,-2.43779 2.76089,-4.66733 4.86523,-6.68359 l 8.67969,-8.316406 -11.98828,-0.882813 c -0.52043,-0.03834 -1.04331,-0.0568 -1.56641,-0.05469 z"
             id="path14"
             sodipodi:nodetypes="cccccccccccccccc"
             inkscape:path-effect="#path-effect22"
             inkscape:original-d="m 133.15173,208.07655 c -8.31088,-24.8355 -11.36525,-57.87766 -7.61961,-75.86061 11.81394,8.64289 17.1618,29.22783 15.4472,42.98371 13.5831,-5.0877 9.53249,-30.4771 -3.96776,-41.86634 8.76414,1.0103 26.45825,9.53934 30.69348,16.49175 1.89982,-16.55816 -21.06131,-24.21154 -34.41235,-24.75742 8.16966,-5.84696 22.12692,-3.93754 32.4164,1.55728 -6.47704,-13.67828 -27.03116,-19.41894 -38.83327,-7.33693 0.42013,-8.22418 3.1421,-15.61434 9.14968,-21.370445 -12.46199,-0.918067 -19.32164,13.947255 -16.58549,24.636415 -12.17218,-14.7453 -33.603467,-8.35792 -39.15807,16.20462 11.142616,-11.13494 28.47305,-18.21937 37.33934,-11.4108 -30.478662,5.79206 -29.438321,31.78645 -23.017295,43.03482 5.323394,-18.85418 11.303035,-27.1053 23.730985,-36.67699 -3.80993,11.49915 -6.11533,44.55666 1.35161,75.40873 4.41073,1.83385 10.14255,0.38747 13.46515,-1.03779 z" /><path
             style="font-variation-settings:normal;opacity:1;vector-effect:none;fill:#25597f;fill-opacity:1;stroke:none;stroke-width:0.23801;stroke-linecap:butt;stroke-linejoin:miter;stroke-miterlimit:4;stroke-dasharray:none;stroke-dashoffset:0;stroke-opacity:1;-inkscape-stroke:none;stop-color:#000000;stop-opacity:1"
             d="m 133.15173,208.07655 c -8.31088,-24.8355 -11.36525,-57.87766 -7.61961,-75.86061 11.81394,8.64289 17.1618,29.22783 15.4472,42.98371 13.5831,-5.0877 9.53249,-30.4771 -3.96776,-41.86634 8.76414,1.0103 26.45825,9.53934 30.69348,16.49175 1.89982,-16.55816 -21.06131,-24.21154 -34.41235,-24.75742 8.16966,-5.84696 22.12692,-3.93754 32.4164,1.55728 -6.47704,-13.67828 -27.03116,-19.41894 -38.83327,-7.33693 0.42013,-8.22418 3.1421,-15.61434 9.14968,-21.370445 -12.46199,-0.918067 -19.32164,13.947255 -16.58549,24.636415 -12.17218,-14.7453 -33.603467,-8.35792 -39.15807,16.20462 11.142616,-11.13494 28.47305,-18.21937 37.33934,-11.4108 -30.478662,5.79206 -29.438321,31.78645 -23.017295,43.03482 5.323394,-18.85418 11.303035,-27.1053 23.730985,-36.67699 -3.80993,11.49915 -6.11533,44.55666 1.35161,75.40873 4.41073,1.83385 10.14255,0.38747 13.46515,-1.03779 z"
             id="path22"
             sodipodi:nodetypes="cccccccccccccccc" /></g></g><path
         d="m 74.46706,185.64491 h 5.775245 q 1.414935,0 2.079088,0.64972 0.664154,0.63528 0.664154,1.94915 0,0.86628 -0.375391,1.41493 -0.375391,0.53421 -0.924039,0.75078 0.317638,0.0866 0.635276,0.27432 0.317639,0.1877 0.548648,0.50534 0.245449,0.31764 0.38983,0.77966 0.158819,0.44758 0.158819,1.03954 0,1.41494 -0.664153,2.07909 -0.664154,0.66415 -2.079088,0.66415 H 74.46706 Z m 6.35277,6.9303 q 0,-0.86629 -0.866288,-0.86629 H 77.06592 v 2.02134 h 2.887622 q 0.866288,0 0.866288,-0.86629 z m -0.433144,-4.04268 q 0,-0.86628 -0.866287,-0.86628 H 77.06592 v 2.02134 h 2.454479 q 0.866287,0 0.866287,-0.86629 z m 7.363424,-0.14438 v 7.36344 h -2.526669 v -5.41429 h -1.082859 v -1.94915 z m -2.526669,-2.88762 h 2.526669 v 2.02134 h -2.526669 z m 3.826096,4.90896 q 0,-1.08286 0.606401,-1.68926 0.620838,-0.62084 1.703697,-0.62084 h 5.342102 v 8.08535 q 0,0.98179 -0.591963,1.57375 -0.591962,0.59196 -1.573754,0.59196 -0.822972,0 -1.703697,-0.0433 -0.880725,-0.0433 -1.631508,-0.10106 -0.880724,-0.0577 -1.718135,-0.14438 v -1.87696 q 0.736344,0.0577 1.472688,0.11551 0.635277,0.0433 1.357182,0.0722 0.721906,0.0288 1.357183,0.0288 0.216572,0 0.360953,-0.14438 0.144381,-0.14438 0.144381,-0.36095 v -0.72191 q -0.418705,0.0866 -0.851849,0.14438 -0.375391,0.0577 -0.808534,0.10107 -0.418705,0.0433 -0.794096,0.0433 h -0.505334 q -0.981792,0 -1.573754,-0.59196 -0.591963,-0.59197 -0.591963,-1.57376 z m 2.52667,2.59886 q 0,0.21657 0.144381,0.36096 0.144381,0.14437 0.360952,0.14437 h 0.360953 q 0.346515,0 0.649715,-0.0144 0.317639,-0.0289 0.563087,-0.0577 0.274324,-0.0289 0.519772,-0.0722 v -3.32077 h -2.021336 q -0.577524,0 -0.577524,0.57752 z m 11.045163,-7.36344 h 6.064 q 1.516,0 2.1946,0.69303 0.69303,0.67859 0.69303,2.19459 v 1.44382 q 0,1.516 -0.69303,2.20903 -0.6786,0.67859 -2.1946,0.67859 h -3.46514 v 2.88762 h -2.59886 z m 6.35276,2.88762 q 0,-0.86628 -0.86628,-0.86628 h -2.88762 v 3.17638 h 2.88762 q 0.86628,0 0.86628,-0.86628 z m 6.93029,-0.14438 v 7.36344 h -2.52668 v -5.41429 h -1.08285 v -1.94915 z m -2.52668,-2.88762 h 2.52668 v 2.02134 h -2.52668 z m 6.20839,2.59886 0.14438,0.72191 q 0.37539,-0.24545 0.80853,-0.43315 0.37539,-0.15881 0.83741,-0.28876 0.46202,-0.14438 0.95292,-0.14438 h 0.64972 q 0.98179,0 1.57375,0.59196 0.59196,0.59197 0.59196,1.57376 v 5.63086 h -2.52666 v -5.19772 q 0,-0.21657 -0.14439,-0.36095 -0.14438,-0.14438 -0.36095,-0.14438 h -0.50534 q -0.27432,0 -0.57752,0.0433 -0.3032,0.0433 -0.56309,0.10106 -0.3032,0.0577 -0.59196,0.14439 v 5.41429 h -2.52667 v -7.6522 z m 9.81791,1.66039 q -0.57753,0 -0.57753,0.57752 v 0.7941 h 2.45448 v -0.7941 q 0,-0.57752 -0.57752,-0.57752 z m -3.1042,0.50533 q 0,-1.08286 0.6064,-1.68926 0.62084,-0.62084 1.7037,-0.62084 h 2.88762 q 1.08286,0 1.68926,0.62084 0.62084,0.6064 0.62084,1.68926 v 2.67105 h -4.98115 v 0.57752 q 0,0.21658 0.14438,0.36096 0.14438,0.14438 0.36096,0.14438 0.62083,0 1.34274,-0.0289 0.73634,-0.0288 1.37162,-0.0722 0.73634,-0.0577 1.47269,-0.11551 v 1.80476 q -0.83741,0.0866 -1.71814,0.14439 -0.75078,0.0577 -1.6315,0.10107 -0.88073,0.0433 -1.7037,0.0433 -0.98179,0 -1.57376,-0.59196 -0.59196,-0.59197 -0.59196,-1.57376 z m 15.73754,5.63086 q -1.41494,0 -2.07909,-0.66415 -0.66415,-0.66415 -0.66415,-2.07909 v -4.6202 q 0,-1.516 0.67858,-2.19459 0.69304,-0.69303 2.20904,-0.69303 h 5.19772 v 2.02134 h -4.6202 q -0.86629,0 -0.86629,0.86628 v 4.6202 q 0,0.33208 0.1877,0.53421 0.20213,0.1877 0.53421,0.1877 0.27433,0 0.63528,0 0.36095,-0.0145 0.75078,-0.0289 0.38983,-0.0145 0.77966,-0.0289 0.40427,-0.0145 0.77965,-0.0433 0.88073,-0.0577 1.81921,-0.11551 v 1.94915 q -0.96736,0.0866 -1.92027,0.14438 -0.82298,0.0577 -1.74701,0.10107 -0.9096,0.0433 -1.67482,0.0433 z m 9.38478,-2.02133 q 0.27433,0 0.57753,-0.0433 0.3032,-0.0433 0.56309,-0.10107 0.30319,-0.0577 0.59196,-0.14439 v -0.86629 h -2.09353 q -0.21657,0 -0.36095,0.14439 -0.14438,0.14438 -0.14438,0.36095 v 0.14439 q 0,0.21656 0.14438,0.36095 0.14438,0.14438 0.36095,0.14438 z m -1.22723,2.02133 q -0.9818,0 -1.57376,-0.59196 -0.59196,-0.59196 -0.59196,-1.57375 v -0.64972 q 0,-0.98179 0.59196,-1.57375 0.59196,-0.59197 1.57376,-0.59197 h 2.95981 v -0.57752 q 0,-0.21657 -0.14438,-0.36095 -0.14439,-0.14439 -0.36095,-0.14439 -0.57753,0 -1.25612,0.0433 -0.66415,0.0288 -1.25612,0.0722 -0.69303,0.0577 -1.38606,0.10106 v -1.80476 q 0.7941,-0.0866 1.61707,-0.14438 0.70747,-0.0577 1.54488,-0.10107 0.83741,-0.0433 1.60263,-0.0433 0.98179,0 1.57375,0.59197 0.59197,0.59196 0.59197,1.57375 v 5.63086 h -2.23791 l -0.14438,-0.7219 q -0.37539,0.24545 -0.80853,0.43315 -0.37539,0.15881 -0.83741,0.28875 -0.46202,0.14439 -0.95292,0.14439 z m 9.0238,-7.79658 0.14438,0.72191 q 0.37539,-0.24545 0.80854,-0.43315 0.37539,-0.15881 0.83741,-0.28876 0.46202,-0.14438 0.95292,-0.14438 h 0.64971 q 0.98179,0 1.57376,0.59196 0.59196,0.59197 0.59196,1.57376 v 5.63086 h -2.52667 v -5.19772 q 0,-0.21657 -0.14439,-0.36095 -0.14437,-0.14438 -0.36095,-0.14438 h -0.50533 q -0.27432,0 -0.57753,0.0433 -0.3032,0.0433 -0.56308,0.10106 -0.3032,0.0577 -0.59197,0.14439 v 5.41429 h -2.52667 v -7.6522 z m 11.98362,0 h 2.67106 l -2.88762,7.6522 h -2.88763 l -2.88762,-7.6522 h 2.67105 l 1.66039,5.19773 z m 5.99182,5.77525 q 0.27432,0 0.57752,-0.0433 0.3032,-0.0433 0.56308,-0.10107 0.30321,-0.0577 0.59197,-0.14439 v -0.86629 h -2.09353 q -0.21657,0 -0.36095,0.14439 -0.14438,0.14438 -0.14438,0.36095 v 0.14439 q 0,0.21656 0.14438,0.36095 0.14438,0.14438 0.36095,0.14438 z m -1.22725,2.02133 q -0.98179,0 -1.57375,-0.59196 -0.59196,-0.59196 -0.59196,-1.57375 v -0.64972 q 0,-0.98179 0.59196,-1.57375 0.59196,-0.59197 1.57375,-0.59197 h 2.95982 v -0.57752 q 0,-0.21657 -0.14439,-0.36095 -0.14437,-0.14439 -0.36095,-0.14439 -0.57752,0 -1.25611,0.0433 -0.66416,0.0288 -1.25612,0.0722 -0.69303,0.0577 -1.38606,0.10106 v -1.80476 q 0.7941,-0.0866 1.61707,-0.14438 0.70747,-0.0577 1.54488,-0.10107 0.83741,-0.0433 1.60263,-0.0433 0.98179,0 1.57376,0.59197 0.59196,0.59196 0.59196,1.57375 v 5.63086 h -2.23791 l -0.14438,-0.7219 q -0.37539,0.24545 -0.80854,0.43315 -0.37539,0.15881 -0.83741,0.28875 -0.46202,0.14439 -0.95291,0.14439 z m 8.87944,-5.41429 q 0,0.21657 0.14437,0.36095 0.14439,0.14439 0.36096,0.14439 h 2.59886 q 0.98179,0 1.57375,0.59196 0.59196,0.59196 0.59196,1.57375 v 0.57753 q 0,0.98179 -0.59196,1.57375 -0.59196,0.59196 -1.57375,0.59196 -0.92404,0 -1.89139,-0.0433 -0.96736,-0.0433 -1.77589,-0.10107 -0.93848,-0.0577 -1.8192,-0.14438 v -1.87695 q 0.77965,0.0577 1.57375,0.1155 0.69303,0.0433 1.50156,0.0722 0.80854,0.0289 1.54488,0.0289 0.21657,0 0.36096,-0.14438 0.14438,-0.14438 0.14438,-0.36095 v -0.50534 h -3.1042 q -0.98179,0 -1.57375,-0.59196 -0.59197,-0.59196 -0.59197,-1.57375 v -0.50533 q 0,-0.9818 0.59197,-1.57376 0.59196,-0.59196 1.57375,-0.59196 h 4.90896 v 1.87695 h -4.04267 q -0.21657,0 -0.36096,0.14438 -0.14437,0.14439 -0.14437,0.36096 z"
         id="text14"
         style="font-size:22.5778px;line-height:0.9;font-family:'Russo One';-inkscape-font-specification:'Russo One';letter-spacing:0px;word-spacing:0px;text-orientation:upright;fill:#ffffff;fill-opacity:1;fill-rule:evenodd;stroke:#25597f;stroke-width:3.38393;stroke-linecap:round;stroke-linejoin:round;stroke-miterlimit:20;stroke-dashoffset:14;paint-order:stroke fill markers"
         aria-label="Big Pine Canvas"
         inkscape:export-filename="BPC.png"
         inkscape:export-xdpi="96"
         inkscape:export-ydpi="96" /></g></g></svg>
